<svg width="106" height="54" viewBox="0 0 106 54" fill="none" xmlns="http://www.w3.org/2000/svg">
<path d="M15.4048 16.1818H19.9858V30.6065C19.9858 32.2543 19.5987 33.6534 18.8246 34.804C18.0504 35.9474 16.9815 36.8175 15.6179 37.4141C14.2614 38.0107 12.7024 38.3089 10.9411 38.3089C9.17969 38.3089 7.61719 38.0107 6.25355 37.4141C4.88991 36.8175 3.82102 35.9474 3.04688 34.804C2.27983 33.6534 1.89631 32.2543 1.89631 30.6065V16.1818H6.50923V30.4467C6.50923 31.6115 6.92827 32.5277 7.76634 33.1953C8.61151 33.8629 9.66974 34.1967 10.9411 34.1967C12.2337 34.1967 13.299 33.8629 14.1371 33.1953C14.9822 32.5277 15.4048 31.6115 15.4048 30.4467V16.1818ZM23.6958 38V21.6364H28.0957V24.4915H28.2662C28.5645 23.4759 29.0616 22.7088 29.7576 22.1903C30.4608 21.6648 31.274 21.402 32.1973 21.402C32.6376 21.402 33.046 21.4553 33.4224 21.5618C33.7988 21.6683 34.1362 21.8139 34.4345 21.9986L33.0708 25.7486C32.8578 25.642 32.6234 25.5533 32.3677 25.4822C32.1191 25.4041 31.8386 25.3651 31.5261 25.3651C30.6099 25.3651 29.8322 25.6776 29.193 26.3026C28.5609 26.9276 28.2413 27.7408 28.2342 28.7422V38H23.6958ZM40.7546 38.3089C39.1921 38.3089 37.896 37.9006 36.8661 37.0838C35.8363 36.267 35.3214 35.049 35.3214 33.4297C35.3214 32.2081 35.609 31.2493 36.1843 30.5533C36.7596 29.8572 37.5124 29.3494 38.4428 29.0298C39.3803 28.7031 40.3888 28.4901 41.4684 28.3906C42.8888 28.2486 43.9045 28.0994 44.5153 27.9432C45.1261 27.7869 45.4315 27.446 45.4315 26.9205V26.8565C45.4315 26.1818 45.2184 25.6598 44.7923 25.2905C44.3732 24.9212 43.7766 24.7365 43.0025 24.7365C42.1857 24.7365 41.5359 24.9141 41.0529 25.2692C40.57 25.6243 40.2504 26.0753 40.0941 26.6222L35.8967 26.2812C36.2092 24.7898 36.9833 23.6072 38.2191 22.7337C39.462 21.8601 41.0636 21.4233 43.0238 21.4233C44.2383 21.4233 45.3746 21.6151 46.4329 21.9986C47.4911 22.3821 48.3434 22.9822 48.9897 23.799C49.6431 24.6087 49.9698 25.6634 49.9698 26.9631V38H45.6658V35.7308H45.538C45.1403 36.4908 44.5437 37.1122 43.7482 37.5952C42.9599 38.071 41.962 38.3089 40.7546 38.3089ZM42.0543 35.1768C43.0487 35.1768 43.8654 34.8892 44.5046 34.3139C45.1438 33.7315 45.4634 33.0107 45.4634 32.1513V30.4148C45.2859 30.5355 45.0089 30.642 44.6325 30.7344C44.2631 30.8267 43.8654 30.9084 43.4393 30.9794C43.0202 31.0433 42.6438 31.1001 42.31 31.1499C41.5146 31.2635 40.8718 31.4872 40.3817 31.821C39.8988 32.1548 39.6573 32.6413 39.6573 33.2805C39.6573 33.9055 39.881 34.3778 40.3285 34.6974C40.783 35.017 41.3583 35.1768 42.0543 35.1768ZM58.0291 28.5398V38H53.4908V21.6364H57.8161V24.5234H58.0078C58.3771 23.5717 58.9844 22.8189 59.8295 22.2649C60.6818 21.7038 61.7152 21.4233 62.9297 21.4233C64.6342 21.4233 66.0014 21.9737 67.0312 23.0746C68.0611 24.1683 68.576 25.6705 68.576 27.581V38H64.0376V28.3906C64.0447 27.3892 63.7891 26.608 63.2706 26.0469C62.7521 25.4787 62.0384 25.1946 61.1293 25.1946C60.2131 25.1946 59.4673 25.4893 58.892 26.0788C58.3239 26.6612 58.0362 27.4815 58.0291 28.5398ZM82.6465 31.0327V21.6364H87.1848V38H82.8276V35.0277H82.6571C82.2878 35.9865 81.6735 36.7571 80.8141 37.3395C79.9618 37.9219 78.9213 38.2131 77.6926 38.2131C76.0449 38.2131 74.7097 37.6662 73.687 36.5724C72.6713 35.4716 72.16 33.9659 72.1529 32.0554V21.6364H76.6912V31.2457C76.6983 32.2116 76.9576 32.9751 77.4689 33.5362C77.9803 34.0973 78.6657 34.3778 79.525 34.3778C80.3418 34.3778 81.0662 34.0937 81.6983 33.5256C82.3375 32.9574 82.6536 32.1264 82.6465 31.0327ZM104.43 26.3026L100.275 26.5582C100.162 26.0327 99.8739 25.5817 99.4123 25.2053C98.9506 24.8288 98.3256 24.6406 97.5373 24.6406C96.8342 24.6406 96.2376 24.7898 95.7475 25.0881C95.2646 25.3793 95.0266 25.7699 95.0337 26.2599C95.0266 26.6506 95.1793 26.9808 95.4918 27.2507C95.8114 27.5206 96.3512 27.7372 97.1112 27.9006L100.073 28.4972C103.219 29.1435 104.796 30.6207 104.803 32.929C104.803 34.0014 104.487 34.9425 103.855 35.7521C103.23 36.5618 102.37 37.1939 101.277 37.6484C100.183 38.0959 98.9293 38.3196 97.516 38.3196C95.3498 38.3196 93.6239 37.8686 92.3384 36.9666C91.0529 36.0575 90.3036 34.8217 90.0906 33.2592L94.5543 33.0249C94.6964 33.6925 95.0231 34.1967 95.5344 34.5376C96.0529 34.8786 96.717 35.049 97.5266 35.049C98.3221 35.049 98.9613 34.8928 99.4442 34.5803C99.9343 34.2678 100.183 33.87 100.19 33.3871C100.169 32.5774 99.4691 32.0341 98.0913 31.7571L95.2575 31.1925C92.0898 30.5604 90.5131 29.0014 90.5273 26.5156C90.5202 24.9389 91.1488 23.696 92.413 22.7869C93.6843 21.8778 95.3675 21.4233 97.4627 21.4233C99.5295 21.4233 101.156 21.8601 102.342 22.7337C103.535 23.6072 104.231 24.7969 104.43 26.3026Z" fill="white"/>
</svg>
